<svg width="1400" height="1325" viewBox="0 0 1400 1325" fill="none" xmlns="http://www.w3.org/2000/svg">
<path d="M624.34 103.82C594.84 2.82012 513.84 13.3201 511.34 13.3201C442.34 23.3201 388.34 90.3201 367.84 111.32C351.44 128.12 315.673 190.32 299.84 219.32C296.34 226.653 287.64 247.62 280.84 272.82C274.04 298.02 278.006 350.32 280.84 373.32C283.506 390.653 295.14 436.42 320.34 480.82C345.54 525.22 391.506 551.987 411.34 559.82C435.84 569.987 501.24 577.92 566.84 528.32C632.44 478.72 650.173 390.32 650.84 352.32C651.84 303.153 647.94 184.62 624.34 103.82Z" fill="url(#paint0_linear_1_14)"/>
<path d="M773.34 113.82C789.74 37.0201 834.173 14.8201 854.34 13.3201C867.673 11.9868 903.74 14.1201 941.34 33.3201C988.34 57.3201 1037.34 113.82 1039.84 117.32C1042.34 120.82 1092.34 191.32 1110.34 237.82C1124.74 275.02 1123.01 335.32 1120.34 360.82C1119.17 374.987 1113.04 413.02 1097.84 451.82C1082.64 490.62 1044.84 526.987 1027.84 540.32C1002.67 559.32 934.04 587.32 860.84 547.32C787.64 507.32 756.673 402.653 750.34 355.32L753.34 241.82C753.173 231.153 756.94 190.62 773.34 113.82Z" fill="url(#paint1_linear_1_14)"/>
<path d="M1334.34 455.32C1299.14 394.92 1245.34 402.153 1222.84 413.32C1203.84 419.466 1172.84 451.82 1156.84 465.82C1140.84 479.82 1098.34 545.32 1078.34 582.82C1062.34 612.82 1051.34 653.653 1047.84 670.32C1044.84 684.653 1040.04 723.02 1044.84 761.82C1049.64 800.62 1070.84 831.987 1080.84 842.82C1097.84 865.987 1149.54 908.02 1220.34 890.82C1308.84 869.32 1355.84 779.32 1372.84 748.32C1386.44 723.52 1387.51 660.653 1386.34 632.32C1383.67 598.487 1369.54 515.72 1334.34 455.32Z" fill="url(#paint2_linear_1_14)"/>
<path d="M123.84 411.82C86.2397 418.22 55.173 467.82 44.3397 491.82C38.0063 506.987 23.7397 546.92 17.3397 585.32C10.9397 623.72 13.0063 666.653 14.8397 683.32C15.5063 697.32 23.8397 738.22 51.8397 789.82C79.8397 841.42 141.84 875.987 169.34 886.82C178.506 889.153 207.44 893.32 249.84 891.32C292.24 889.32 325.173 847.153 336.34 826.32C346.673 793.487 364.64 714.82 353.84 662.82C340.34 597.82 283.84 514.32 258.34 480.82C232.84 447.32 170.84 403.82 123.84 411.82Z" fill="url(#paint3_linear_1_14)"/>
<path d="M937.34 742.82C864.94 600.42 747.84 580.82 698.34 588.82C576.34 573.82 481.34 697.82 471.34 726.82C461.34 755.82 353.84 871.82 323.34 891.32C292.84 910.82 207.34 1022.82 218.34 1113.82C229.34 1204.82 268.34 1227.82 354.34 1282.82C423.14 1326.82 544.34 1311.15 596.34 1297.82C630.34 1286.82 706.34 1267.02 738.34 1275.82C778.34 1286.82 832.34 1302.82 915.34 1309.82C981.74 1315.42 1068.34 1275.49 1103.34 1254.82C1136.34 1222.82 1198.54 1139.82 1183.34 1063.82C1164.34 968.82 1078.34 870.82 1044.84 863.82C1018.04 858.22 962.006 780.82 937.34 742.82Z" fill="url(#paint4_linear_1_14)"/>
<path d="M624.34 103.82C594.84 2.82012 513.84 13.3201 511.34 13.3201C442.34 23.3201 388.34 90.3201 367.84 111.32C351.44 128.12 315.673 190.32 299.84 219.32C296.34 226.653 287.64 247.62 280.84 272.82C274.04 298.02 278.006 350.32 280.84 373.32C283.506 390.653 295.14 436.42 320.34 480.82C345.54 525.22 391.506 551.987 411.34 559.82C435.84 569.987 501.24 577.92 566.84 528.32C632.44 478.72 650.173 390.32 650.84 352.32C651.84 303.153 647.94 184.62 624.34 103.82Z" stroke="#E24E1B" stroke-width="25"/>
<path d="M773.34 113.82C789.74 37.0201 834.173 14.8201 854.34 13.3201C867.673 11.9868 903.74 14.1201 941.34 33.3201C988.34 57.3201 1037.34 113.82 1039.84 117.32C1042.34 120.82 1092.34 191.32 1110.34 237.82C1124.74 275.02 1123.01 335.32 1120.34 360.82C1119.17 374.987 1113.04 413.02 1097.84 451.82C1082.64 490.62 1044.84 526.987 1027.84 540.32C1002.67 559.32 934.04 587.32 860.84 547.32C787.64 507.32 756.673 402.653 750.34 355.32L753.34 241.82C753.173 231.153 756.94 190.62 773.34 113.82Z" stroke="#E24E1B" stroke-width="25"/>
<path d="M1334.34 455.32C1299.14 394.92 1245.34 402.153 1222.84 413.32C1203.84 419.466 1172.84 451.82 1156.84 465.82C1140.84 479.82 1098.34 545.32 1078.34 582.82C1062.34 612.82 1051.34 653.653 1047.84 670.32C1044.84 684.653 1040.04 723.02 1044.84 761.82C1049.64 800.62 1070.84 831.987 1080.84 842.82C1097.84 865.987 1149.54 908.02 1220.34 890.82C1308.84 869.32 1355.84 779.32 1372.84 748.32C1386.44 723.52 1387.51 660.653 1386.34 632.32C1383.67 598.487 1369.54 515.72 1334.34 455.32Z" stroke="#E24E1B" stroke-width="25"/>
<path d="M123.84 411.82C86.2397 418.22 55.173 467.82 44.3397 491.82C38.0063 506.987 23.7397 546.92 17.3397 585.32C10.9397 623.72 13.0063 666.653 14.8397 683.32C15.5063 697.32 23.8397 738.22 51.8397 789.82C79.8397 841.42 141.84 875.987 169.34 886.82C178.506 889.153 207.44 893.32 249.84 891.32C292.24 889.32 325.173 847.153 336.34 826.32C346.673 793.487 364.64 714.82 353.84 662.82C340.34 597.82 283.84 514.32 258.34 480.82C232.84 447.32 170.84 403.82 123.84 411.82Z" stroke="#E24E1B" stroke-width="25"/>
<path d="M937.34 742.82C864.94 600.42 747.84 580.82 698.34 588.82C576.34 573.82 481.34 697.82 471.34 726.82C461.34 755.82 353.84 871.82 323.34 891.32C292.84 910.82 207.34 1022.82 218.34 1113.82C229.34 1204.82 268.34 1227.82 354.34 1282.82C423.14 1326.82 544.34 1311.15 596.34 1297.82C630.34 1286.82 706.34 1267.02 738.34 1275.82C778.34 1286.82 832.34 1302.82 915.34 1309.82C981.74 1315.42 1068.34 1275.49 1103.34 1254.82C1136.34 1222.82 1198.54 1139.82 1183.34 1063.82C1164.34 968.82 1078.34 870.82 1044.84 863.82C1018.04 858.22 962.006 780.82 937.34 742.82Z" stroke="#E24E1B" stroke-width="25"/>
<defs>
<linearGradient id="paint0_linear_1_14" x1="629" y1="437" x2="1025" y2="1312" gradientUnits="userSpaceOnUse">
<stop stop-color="#FF5920"/>
<stop offset="1" stop-color="#F58B61"/>
</linearGradient>
<linearGradient id="paint1_linear_1_14" x1="629" y1="437" x2="1025" y2="1312" gradientUnits="userSpaceOnUse">
<stop stop-color="#FF5920"/>
<stop offset="1" stop-color="#F58B61"/>
</linearGradient>
<linearGradient id="paint2_linear_1_14" x1="629" y1="437" x2="1025" y2="1312" gradientUnits="userSpaceOnUse">
<stop stop-color="#FF5920"/>
<stop offset="1" stop-color="#F58B61"/>
</linearGradient>
<linearGradient id="paint3_linear_1_14" x1="629" y1="437" x2="1025" y2="1312" gradientUnits="userSpaceOnUse">
<stop stop-color="#FF5920"/>
<stop offset="1" stop-color="#F58B61"/>
</linearGradient>
<linearGradient id="paint4_linear_1_14" x1="629" y1="437" x2="1025" y2="1312" gradientUnits="userSpaceOnUse">
<stop stop-color="#FF5920"/>
<stop offset="1" stop-color="#F58B61"/>
</linearGradient>
</defs>
</svg>
