<svg width="1374" height="1299" viewBox="0 0 1374 1299" fill="none" xmlns="http://www.w3.org/2000/svg">
<path d="M611.34 90.8201C581.84 -10.1799 500.84 0.320124 498.34 0.320124C429.34 10.3201 375.34 77.3201 354.84 98.3201C338.44 115.12 302.673 177.32 286.84 206.32C283.34 213.653 274.64 234.62 267.84 259.82C261.04 285.02 265.006 337.32 267.84 360.32C270.506 377.653 282.14 423.42 307.34 467.82C332.54 512.22 378.506 538.987 398.34 546.82C422.84 556.987 488.24 564.92 553.84 515.32C619.44 465.72 637.173 377.32 637.84 339.32C638.84 290.153 634.94 171.62 611.34 90.8201Z" fill="#F58B61"/>
<path d="M760.34 100.82C776.74 24.0201 821.173 1.82012 841.34 0.320124C854.673 -1.01321 890.74 1.12011 928.34 20.3201C975.34 44.3201 1024.34 100.82 1026.84 104.32C1029.34 107.82 1079.34 178.32 1097.34 224.82C1111.74 262.02 1110.01 322.32 1107.34 347.82C1106.17 361.987 1100.04 400.02 1084.84 438.82C1069.64 477.62 1031.84 513.987 1014.84 527.32C989.673 546.32 921.04 574.32 847.84 534.32C774.64 494.32 743.673 389.653 737.34 342.32L740.34 228.82C740.173 218.153 743.94 177.62 760.34 100.82Z" fill="#F58B61"/>
<path d="M1321.34 442.32C1286.14 381.92 1232.34 389.153 1209.84 400.32C1190.84 406.466 1159.84 438.82 1143.84 452.82C1127.84 466.82 1085.34 532.32 1065.34 569.82C1049.34 599.82 1038.34 640.653 1034.84 657.32C1031.84 671.653 1027.04 710.02 1031.84 748.82C1036.64 787.62 1057.84 818.987 1067.84 829.82C1084.84 852.987 1136.54 895.02 1207.34 877.82C1295.84 856.32 1342.84 766.32 1359.84 735.32C1373.44 710.52 1374.51 647.653 1373.34 619.32C1370.67 585.487 1356.54 502.72 1321.34 442.32Z" fill="#F58B61"/>
<path d="M110.84 398.82C73.2397 405.22 42.173 454.82 31.3397 478.82C25.0063 493.987 10.7397 533.92 4.33966 572.32C-2.06034 610.72 0.00632524 653.653 1.83966 670.32C2.50633 684.32 10.8397 725.22 38.8397 776.82C66.8397 828.42 128.84 862.987 156.34 873.82C165.506 876.153 194.44 880.32 236.84 878.32C279.24 876.32 312.173 834.153 323.34 813.32C333.673 780.487 351.64 701.82 340.84 649.82C327.34 584.82 270.84 501.32 245.34 467.82C219.84 434.32 157.84 390.82 110.84 398.82Z" fill="#F58B61"/>
<path d="M924.34 729.82C851.94 587.42 734.84 567.82 685.34 575.82C563.34 560.82 468.34 684.82 458.34 713.82C448.34 742.82 340.84 858.82 310.34 878.32C279.84 897.82 194.34 1009.82 205.34 1100.82C216.34 1191.82 255.34 1214.82 341.34 1269.82C410.14 1313.82 531.34 1298.15 583.34 1284.82C617.34 1273.82 693.34 1254.02 725.34 1262.82C765.34 1273.82 819.34 1289.82 902.34 1296.82C968.74 1302.42 1055.34 1262.49 1090.34 1241.82C1123.34 1209.82 1185.54 1126.82 1170.34 1050.82C1151.34 955.82 1065.34 857.82 1031.84 850.82C1005.04 845.22 949.006 767.82 924.34 729.82Z" fill="#F58B61"/>
</svg>
